<svg id="mote" xmlns="http://www.w3.org/2000/svg" viewBox="0 0 4153.28 1540.09"><defs><style>.cls-1{fill:#41145f;}</style></defs><path class="cls-1" d="M776,824.41H910.76V1160H776Zm-370.72,0H540V1160H405.23ZM885.55,426.53l-191.63-.07L515.77,248.31v78.06L189.4,0V319.9L51,181.52V426.4H0v750.06l348.61,348.61h75.16l.06.07,461.72-.07,348.61-348.61V775.14Zm213.8,694.12L829.74,1390.27H404.42L134.81,1120.65V561.34h189.4V325.42L560.12,561.34H829.74L1099.35,831Z"/><path class="cls-1" d="M2005.31,552.48a341,341,0,0,0-63-19.21,346.33,346.33,0,0,0-66.59-6q-68.42,0-99,33t-30.6,95.41v34.8h224.4v109.2h-224.4v480H1609.31v-480H1446.12V696.48l163.19-6V658.09q0-51.62,14.41-96t45-76.21q30.58-31.77,78-49.79t112.2-18a487.47,487.47,0,0,1,91.8,8.4,468,468,0,0,1,83.4,24Z"/><path class="cls-1" d="M2119.3,985.68q0-72,21.6-129.59t58.2-97.21q36.6-39.6,83.4-61.2a229.54,229.54,0,0,1,97.21-21.59q52.78,0,90.59,18.59t73.81,51l-6-99.59V432.48H2677.3v847.2h-114l-10.8-68.41h-3.59a325.92,325.92,0,0,1-81,58.82q-46.22,24-96.61,24-56.39,0-103.2-21a219.56,219.56,0,0,1-79.8-60.6q-33-39.6-51-96.61T2119.3,985.68Zm142.81-1.2q0,96,37.19,145.81t105.61,49.8q73.2,0,133.2-70.82V844.09q-31.21-30-62.4-42a175.86,175.86,0,0,0-63.6-12,130.7,130.7,0,0,0-58.2,13.2,142.57,142.57,0,0,0-47.41,37.8q-20.39,24.6-32.39,60.59T2262.11,984.48Z"/><path class="cls-1" d="M2850.1,1382.88q0-34.8,24-67.2t69.6-56.41v-4.79q-24-13.2-42-37.21t-18-61.18q0-30,19.2-59.41t51.59-52.2v-4.8q-31.22-21.59-53.4-60t-22.19-91.2q0-50.4,19.8-90a200.77,200.77,0,0,1,52.79-66.61q33-27,76.8-41.39t93-14.4q52.8,0,92.41,14.39h241.2v102h-138q15.58,18,27.59,43.81t12,57q0,49.23-18,86.41a176.84,176.84,0,0,1-49.79,62.41q-31.82,25.19-75,37.79t-92.41,12.6q-44.39,0-90-15.6-36,22.81-36,54,0,56.4,111.61,56.39h120q115.2,0,173.39,33.61t58.2,110.39q0,43.2-24,81.61t-67.79,66.6q-43.82,28.18-106.8,44.4t-141,16.21q-61.21,0-110.41-9.6t-84.61-29.4q-35.39-19.83-54.59-49.21T2850.1,1382.88Zm115.19-18q0,39.58,43.8,62.41t126.61,22.8q43.18,0,78-7.8t60-21q25.18-13.21,38.39-30.61t13.2-36.59q0-34.83-30-46.21t-88.8-11.4H3112.9q-28.8,0-51-1.8t-39-7.8q-31.21,19.2-44.41,38.41T2965.29,1364.88Zm156-358.79q45.61,0,79.2-30.6t33.61-87q0-54-33.61-85.8t-79.2-31.8q-45.61,0-78.59,31.8t-33,85.8q0,56.41,33,87T3121.29,1006.09Z"/><path class="cls-1" d="M3723.69,799.68H3566.48V696.48l163.21-6,18-160.8h114v160.8h268.79v109.2H3861.69v242.41q0,73.19,30,107.39t105.59,34.2q38.38,0,69.61-6.59a416.84,416.84,0,0,0,60-17.41l26.39,100.8a806.51,806.51,0,0,1-87.59,23.4q-48,10.2-102,10.21-67.23,0-112.82-18t-73.79-51q-28.2-33-40.8-79.8t-12.59-103.2Z"/></svg>