<svg id="mote" xmlns="http://www.w3.org/2000/svg" viewBox="0 0 4720.36 2262.7"><defs><style>.cls-1{fill:#41145f;}</style></defs><path class="cls-1" d="M1151.2,1223.1h200V1721h-200Zm-550,0h200V1721h-200Zm712.6-590.3-284.3-.1L765.2,368.4V484.2L281,0V474.6L75.7,269.3V632.6H0V1745.4l517.2,517.2H628.7l.1.1,685-.1L1831,1745.4V1150ZM1631,1662.6l-400,400H600l-400-400V832.8H481v-350l350,350h400l400,400Z"/><path class="cls-1" d="M2572.39,1016.92a341.69,341.69,0,0,0-63-19.2,346.4,346.4,0,0,0-66.59-6q-68.41,0-99,33t-30.6,95.41v34.79h224.39v109.21H2313.2v480H2176.39v-480H2013.2V1160.92l163.19-6v-32.39q0-51.6,14.41-96t45-76.2q30.59-31.79,78-49.8t112.2-18a487.54,487.54,0,0,1,91.8,8.41,467.41,467.41,0,0,1,83.4,24Z"/><path class="cls-1" d="M2686.38,1450.13q0-72,21.59-129.6t58.21-97.2q36.6-39.61,83.4-61.2a229.56,229.56,0,0,1,97.21-21.6q52.77,0,90.59,18.6t73.81,51l-6-99.6V896.92h139.19v847.21h-114l-10.8-68.41H3116a325.89,325.89,0,0,1-81,58.81q-46.22,24-96.61,24-56.39,0-103.2-21a219.45,219.45,0,0,1-79.8-60.59q-33-39.62-51-96.61T2686.38,1450.13Zm142.81-1.21q0,96,37.19,145.82T2972,1644.53q73.2,0,133.2-70.81V1308.53q-31.21-30-62.4-42a175.9,175.9,0,0,0-63.6-12,130.71,130.71,0,0,0-58.2,13.21,142.54,142.54,0,0,0-47.41,37.79q-20.39,24.62-32.39,60.6T2829.19,1448.92Z"/><path class="cls-1" d="M3417.18,1847.33q0-34.8,24-67.2t69.59-56.41v-4.8q-24-13.18-42-37.2t-18-61.19q0-30,19.21-59.4t51.59-52.21v-4.79q-31.21-21.59-53.4-60T3446,1352.92q0-50.39,19.79-90a200.82,200.82,0,0,1,52.8-66.61q33-27,76.8-41.39t93-14.41q52.8,0,92.4,14.39H4022v102H3884q15.58,18,27.59,43.82t12,57q0,49.21-18,86.41a176.63,176.63,0,0,1-49.8,62.4q-31.8,25.2-75,37.8t-92.4,12.59q-44.4,0-90-15.59-36,22.8-36,54,0,56.39,111.61,56.39h120q115.18,0,173.39,33.61t58.2,110.39q0,43.2-24,81.61t-67.8,66.59q-43.8,28.2-106.79,44.41t-141,16.2q-61.21,0-110.41-9.59T3491,1965.53q-35.39-19.83-54.59-49.2T3417.18,1847.33Zm115.19-18q0,39.59,43.8,62.41t126.6,22.79q43.2,0,78-7.79t60-21q25.2-13.23,38.4-30.61t13.2-36.6q0-34.83-30-46.2t-88.8-11.41H3680q-28.82,0-51-1.79t-39-7.8q-31.21,19.2-44.41,38.41T3532.37,1829.33Zm156-358.8q45.6,0,79.2-30.59t33.61-87q0-54-33.61-85.79t-79.2-31.8q-45.61,0-78.6,31.8t-33,85.79q0,56.41,33,87T3688.37,1470.53Z"/><path class="cls-1" d="M4290.76,1264.13h-157.2V1160.92l163.2-6,18-160.79h114v160.79h268.8v109.21h-268.8v242.4q0,73.2,30,107.39t105.6,34.21q38.39,0,69.61-6.6a416.28,416.28,0,0,0,60-17.4l26.39,100.79a806.63,806.63,0,0,1-87.6,23.41q-48,10.2-102,10.2-67.22,0-112.81-18t-73.8-51q-28.18-33-40.79-79.79t-12.6-103.21Z"/></svg>